<!--?xml version="1.0" encoding="utf-8"?-->
<!-- Svg Vector Icons : http://www.onlinewebfonts.com/icon -->

<svg version="1.1" xmlns="http://www.w3.org/2000/svg" xmlns:xlink="http://www.w3.org/1999/xlink" x="0px" y="0px" viewBox="0 0 256 256" enable-background="new 0 0 256 256" xml:space="preserve">
<metadata> Svg Vector Icons : http://www.onlinewebfonts.com/icon </metadata>
<g> <path fill="#ffffff" data-title="Layer 0" xs="0" d="M242.4,161.4c-7-7.5-21.3-11.8-41.6-11.8c-10.8,0-23.4,1.1-37,3.6c-8.3-8.2-15.9-17.2-22.7-26.8 c-5.2-7.3-9.8-15-14-22.6c8-25,11.9-45.4,11.9-60.1c0-16.5-5.9-33.6-23-33.6c-5.2,0-10.5,3.2-13.3,7.9c-7.7,13.9-4.2,44.2,9,74.3 c-5.1,15.3-10.6,30.4-16.7,45.4c-5.8,13.7-12.1,27.2-18.9,40.3c-38.4,15.6-63.3,33.8-65.7,48.1c-1,5.4,0.7,10.3,4.5,14.3 c1.3,1.1,6.3,5.4,14.6,5.4c25.5,0,52.4-42.2,66.1-67.6c10.5-3.5,21-6.8,31.4-10c11-3.1,22.2-5.6,33.5-7.5 c26.9,24.7,50.7,28.6,62.6,28.6c14.7,0,19.9-6.1,21.7-11.1c2.8-6.4,0.7-13.5-2.5-17.1L242.4,161.4L242.4,161.4z M228.8,171.8 c-1,5.4-6.3,8.9-13.6,8.9c-2.1,0-3.8-0.4-5.9-0.7c-13.4-3.2-25.9-10-38.4-20.7c9.7-1.6,19.5-2.5,29.3-2.5c7.3,0,13.6,0.3,17.8,1.4 C222.7,159.3,230.4,162.5,228.8,171.8l0.1,0L228.8,171.8z M154.7,155c-9.7,2-19.4,4.3-29,6.8c-8,2.2-16.4,4.7-24.8,7.6 c4.6-8.9,8.4-17.5,11.9-25.6c4.2-10,7.7-20.4,11.2-30c3.4,6,7.3,12.1,11.1,17.5c6.3,8.6,12.9,16.7,19.5,23.8v-0.2L154.7,155z M108.9,22.2c1.3-2.6,3.8-4.2,6.7-4.3c7.3,0,8.7,8.5,8.7,15.4c0,11.5-3.5,29-9.5,48.9C104.4,54.4,103.7,31.1,108.9,22.2L108.9,22.2 z M70.4,188.6c-17.8,30-34.9,48.6-45.4,48.6c-1.9,0-3.7-0.6-5.2-1.8c-2.1-2.1-3.2-4.6-2.4-7.5C19.4,217.1,39.4,202.1,70.4,188.6 L70.4,188.6z"/></g>
</svg>